/* XPM */
static char * spinecreator_xpm[] = {
"32 32 64 1",
" 	c None",
".	c #E3E3E3",
"+	c #E2E2E2",
"@	c #EFEFEF",
"#	c #E1E1E1",
"$	c #F0F0F0",
"%	c #515151",
"&	c #565656",
"*	c #E6E6E6",
"=	c #595959",
"-	c #EBEBEB",
";	c #5F5F5F",
">	c #ECECEC",
",	c #EEEEEE",
"'	c #666666",
")	c #EDEDED",
"!	c #6B6B6B",
"~	c #707070",
"{	c #5D5D5D",
"]	c #737373",
"^	c #606060",
"/	c #767676",
"(	c #646464",
"_	c #7D7D7D",
":	c #6A6A6A",
"<	c #808080",
"[	c #6D6D6D",
"}	c #E7E7E7",
"|	c #E5E5E5",
"1	c #E0E0E0",
"2	c #DBDBDB",
"3	c #858585",
"4	c #E8E8E8",
"5	c #D6D6D6",
"6	c #717171",
"7	c #E4E4E4",
"8	c #DEDEDE",
"9	c #DFDFDF",
"0	c #E9E9E9",
"a	c #EAEAEA",
"b	c #D1D1D1",
"c	c #B3B3B3",
"d	c #C7C7C7",
"e	c #C1C1C1",
"f	c #B9B9B9",
"g	c #C0C0C0",
"h	c #D2D2D2",
"i	c #BABABA",
"j	c #BFBFBF",
"k	c #B6B6B6",
"l	c #B4B4B4",
"m	c #B0B0B0",
"n	c #ABABAB",
"o	c #A6A6A6",
"p	c #9B9B9B",
"q	c #8A8A8A",
"r	c #D7D7D7",
"s	c #4E4E4E",
"t	c #929292",
"u	c #575757",
"v	c #898989",
"w	c #BBBBBB",
"x	c #DCDCDC",
"y	c #525252",
"                                ",
"                                ",
"                                ",
"                                ",
"                                ",
"                                ",
"           .         +          ",
"           @         #          ",
"           $%        .          ",
"           $&        *          ",
"           $=        -          ",
"           $;        >          ",
"           ,'        ,          ",
"           )!        @&         ",
"           )~        $=         ",
"           )~        ${         ",
"           )]        @^         ",
"           >/        @(         ",
"           >_        ,:         ",
"           ><        )[         ",
" #}|#1|#2}1-3  *4|#15,6 78889   ",
" 4}}}}}}40aa< |}bcded,'#}9efgh  ",
" #bijklmnop@q.}rs    ,t>);      ",
"           }a}#u     }0-v       ",
"           }}};      4}w        ",
"           x4!       x8y        ",
"                                ",
"                                ",
"                                ",
"                                ",
"                                ",
"                                "};
